<?xml version="1.0" encoding="UTF-8"?><svg xmlns="http://www.w3.org/2000/svg" xmlns:xlink="http://www.w3.org/1999/xlink" fill-opacity="1" color-rendering="auto" color-interpolation="auto" text-rendering="auto" stroke="black" stroke-linecap="square" width="583" stroke-miterlimit="10" shape-rendering="auto" stroke-opacity="1" fill="black" stroke-dasharray="none" font-weight="normal" stroke-width="1" height="479" font-family="'Dialog'" font-style="normal" stroke-linejoin="miter" font-size="12px" stroke-dashoffset="0" image-rendering="auto">
  <!--Generated by ySVG 2.5-->
  <defs id="genericDefs"/>
  <g>
    <defs id="defs1">
      <clipPath clipPathUnits="userSpaceOnUse" id="clipPath1">
        <path d="M0 0 L583 0 L583 479 L0 479 L0 0 Z"/>
      </clipPath>
      <clipPath clipPathUnits="userSpaceOnUse" id="clipPath2">
        <path d="M-13.5284 36.7348 L869.5284 36.7348 L869.5284 762.2651 L-13.5284 762.2651 L-13.5284 36.7348 Z"/>
      </clipPath>
      <clipPath clipPathUnits="userSpaceOnUse" id="clipPath3">
        <path d="M-14.0284 36.0987 L869.0284 36.0987 L869.0284 761.629 L-14.0284 761.629 L-14.0284 36.0987 Z"/>
      </clipPath>
      <clipPath clipPathUnits="userSpaceOnUse" id="clipPath4">
        <path d="M0 0 L0 24 L24 24 L24 0 Z"/>
      </clipPath>
      <clipPath clipPathUnits="userSpaceOnUse" id="clipPath5">
        <path d="M-14.0284 36.1612 L869.0284 36.1612 L869.0284 761.6915 L-14.0284 761.6915 L-14.0284 36.1612 Z"/>
      </clipPath>
      <clipPath clipPathUnits="userSpaceOnUse" id="clipPath6">
        <path d="M-14.0284 36.3174 L869.0284 36.3174 L869.0284 761.8477 L-14.0284 761.8477 L-14.0284 36.3174 Z"/>
      </clipPath>
      <clipPath clipPathUnits="userSpaceOnUse" id="clipPath7">
        <path d="M-14.0284 36.0466 L869.0284 36.0466 L869.0284 761.577 L-14.0284 761.577 L-14.0284 36.0466 Z"/>
      </clipPath>
      <clipPath clipPathUnits="userSpaceOnUse" id="clipPath8">
        <path d="M-0 0 L-0 24 L24 24 L24 0 Z"/>
      </clipPath>
      <clipPath clipPathUnits="userSpaceOnUse" id="clipPath9">
        <path d="M-14.0284 36.1716 L869.0284 36.1716 L869.0284 761.702 L-14.0284 761.702 L-14.0284 36.1716 Z"/>
      </clipPath>
      <clipPath clipPathUnits="userSpaceOnUse" id="clipPath10">
        <path d="M-14.0284 36.5466 L869.0284 36.5466 L869.0284 762.077 L-14.0284 762.077 L-14.0284 36.5466 Z"/>
      </clipPath>
      <clipPath clipPathUnits="userSpaceOnUse" id="clipPath11">
        <path d="M0 -0 L0 24 L24 24 L24 -0 Z"/>
      </clipPath>
      <clipPath clipPathUnits="userSpaceOnUse" id="clipPath12">
        <path d="M-14.0284 36.4424 L869.0284 36.4424 L869.0284 761.9727 L-14.0284 761.9727 L-14.0284 36.4424 Z"/>
      </clipPath>
      <clipPath clipPathUnits="userSpaceOnUse" id="clipPath13">
        <path d="M-14.0284 36.1299 L869.0284 36.1299 L869.0284 761.6602 L-14.0284 761.6602 L-14.0284 36.1299 Z"/>
      </clipPath>
      <clipPath clipPathUnits="userSpaceOnUse" id="clipPath14">
        <path d="M-14.0284 35.8174 L869.0284 35.8174 L869.0284 761.3477 L-14.0284 761.3477 L-14.0284 35.8174 Z"/>
      </clipPath>
      <clipPath clipPathUnits="userSpaceOnUse" id="clipPath15">
        <path d="M-13.5284 36.4424 L869.5284 36.4424 L869.5284 761.9727 L-13.5284 761.9727 L-13.5284 36.4424 Z"/>
      </clipPath>
      <clipPath clipPathUnits="userSpaceOnUse" id="clipPath16">
        <path d="M-13.5284 36.1299 L869.5284 36.1299 L869.5284 761.6602 L-13.5284 761.6602 L-13.5284 36.1299 Z"/>
      </clipPath>
      <clipPath clipPathUnits="userSpaceOnUse" id="clipPath17">
        <path d="M-0 -0 L-0 24 L24 24 L24 -0 Z"/>
      </clipPath>
      <clipPath clipPathUnits="userSpaceOnUse" id="clipPath18">
        <path d="M-13.5284 35.8174 L869.5284 35.8174 L869.5284 761.3477 L-13.5284 761.3477 L-13.5284 35.8174 Z"/>
      </clipPath>
      <clipPath clipPathUnits="userSpaceOnUse" id="clipPath19">
        <path d="M-13.5284 36.7237 L869.5284 36.7237 L869.5284 762.254 L-13.5284 762.254 L-13.5284 36.7237 Z"/>
      </clipPath>
      <clipPath clipPathUnits="userSpaceOnUse" id="clipPath20">
        <path d="M-13.5284 36.1612 L869.5284 36.1612 L869.5284 761.6915 L-13.5284 761.6915 L-13.5284 36.1612 Z"/>
      </clipPath>
      <clipPath clipPathUnits="userSpaceOnUse" id="clipPath21">
        <path d="M-13.5284 35.8487 L869.5284 35.8487 L869.5284 761.379 L-13.5284 761.379 L-13.5284 35.8487 Z"/>
      </clipPath>
    </defs>
    <g fill="white" transform="scale(0.6602,0.6602) translate(13.5284,-36.7348)" stroke="white">
      <rect x="-14" width="884" height="727" y="36" clip-path="url(#clipPath2)" stroke="none"/>
    </g>
    <g fill="silver" stroke="silver">
      <path d="M10.9219 467 L10.9219 458.4062 L14.1719 458.4062 Q15.0156 458.4062 15.4688 458.4844 Q16.1094 458.5938 16.5312 458.8906 Q16.9688 459.1875 17.2188 459.7188 Q17.4844 460.25 17.4844 460.8906 Q17.4844 461.9844 16.7812 462.75 Q16.0938 463.5 14.2656 463.5 L12.0625 463.5 L12.0625 467 L10.9219 467 ZM12.0625 462.5 L14.2812 462.5 Q15.3906 462.5 15.8438 462.0938 Q16.3125 461.6719 16.3125 460.9219 Q16.3125 460.3906 16.0312 460.0156 Q15.7656 459.625 15.3281 459.5 Q15.0312 459.4219 14.2656 459.4219 L12.0625 459.4219 L12.0625 462.5 ZM18.4102 463.8906 Q18.4102 462.1562 19.3633 461.3281 Q20.1602 460.6406 21.3164 460.6406 Q22.5977 460.6406 23.4102 461.4844 Q24.2383 462.3125 24.2383 463.7969 Q24.2383 465 23.8789 465.6875 Q23.5195 466.375 22.8164 466.7656 Q22.1289 467.1406 21.3164 467.1406 Q20.0195 467.1406 19.207 466.3125 Q18.4102 465.4688 18.4102 463.8906 ZM19.4883 463.8906 Q19.4883 465.0781 20.0039 465.6719 Q20.5352 466.2656 21.3164 466.2656 Q22.1133 466.2656 22.6289 465.6719 Q23.1445 465.0781 23.1445 463.8594 Q23.1445 462.7031 22.6133 462.1094 Q22.0977 461.5156 21.3164 461.5156 Q20.5352 461.5156 20.0039 462.1094 Q19.4883 462.6875 19.4883 463.8906 ZM26.6152 467 L24.709 460.7812 L25.8027 460.7812 L26.7871 464.375 L27.1621 465.7031 Q27.1934 465.6094 27.4902 464.4219 L28.4746 460.7812 L29.5527 460.7812 L30.4902 464.3906 L30.8027 465.5781 L31.1621 464.375 L32.2246 460.7812 L33.2559 460.7812 L31.3027 467 L30.209 467 L29.2246 463.2656 L28.9746 462.2188 L27.7246 467 L26.6152 467 ZM38.3906 465 L39.4844 465.125 Q39.2344 466.0781 38.5312 466.6094 Q37.8281 467.1406 36.75 467.1406 Q35.3906 467.1406 34.5781 466.2969 Q33.7812 465.4531 33.7812 463.9375 Q33.7812 462.375 34.5938 461.5156 Q35.4062 460.6406 36.6875 460.6406 Q37.9375 460.6406 38.7188 461.4844 Q39.5156 462.3281 39.5156 463.875 Q39.5156 463.9688 39.5156 464.1562 L34.875 464.1562 Q34.9375 465.1875 35.4531 465.7344 Q35.9688 466.2656 36.75 466.2656 Q37.3281 466.2656 37.7344 465.9688 Q38.1562 465.6562 38.3906 465 ZM34.9375 463.2969 L38.4062 463.2969 Q38.3438 462.5 38.0156 462.1094 Q37.5 461.5 36.7031 461.5 Q35.9688 461.5 35.4688 461.9844 Q34.9844 462.4688 34.9375 463.2969 ZM40.7988 467 L40.7988 460.7812 L41.752 460.7812 L41.752 461.7188 Q42.1113 461.0625 42.4082 460.8594 Q42.7207 460.6406 43.0957 460.6406 Q43.627 460.6406 44.1738 460.9688 L43.8145 461.9531 Q43.4238 461.7188 43.0488 461.7188 Q42.6895 461.7188 42.4082 461.9375 Q42.1426 462.1406 42.0332 462.5156 Q41.8457 463.0781 41.8457 463.7344 L41.8457 467 L40.7988 467 ZM49.0605 465 L50.1543 465.125 Q49.9043 466.0781 49.2012 466.6094 Q48.498 467.1406 47.4199 467.1406 Q46.0605 467.1406 45.248 466.2969 Q44.4512 465.4531 44.4512 463.9375 Q44.4512 462.375 45.2637 461.5156 Q46.0762 460.6406 47.3574 460.6406 Q48.6074 460.6406 49.3887 461.4844 Q50.1855 462.3281 50.1855 463.875 Q50.1855 463.9688 50.1855 464.1562 L45.5449 464.1562 Q45.6074 465.1875 46.123 465.7344 Q46.6387 466.2656 47.4199 466.2656 Q47.998 466.2656 48.4043 465.9688 Q48.8262 465.6562 49.0605 465 ZM45.6074 463.2969 L49.0762 463.2969 Q49.0137 462.5 48.6855 462.1094 Q48.1699 461.5 47.373 461.5 Q46.6387 461.5 46.1387 461.9844 Q45.6543 462.4688 45.6074 463.2969 ZM55.5156 467 L55.5156 466.2188 Q54.9219 467.1406 53.7812 467.1406 Q53.0312 467.1406 52.4062 466.7344 Q51.7812 466.3125 51.4375 465.5781 Q51.0938 464.8438 51.0938 463.8906 Q51.0938 462.9688 51.4062 462.2031 Q51.7188 461.4375 52.3438 461.0469 Q52.9688 460.6406 53.7344 460.6406 Q54.2969 460.6406 54.7344 460.875 Q55.1719 461.1094 55.4531 461.4844 L55.4531 458.4062 L56.5 458.4062 L56.5 467 L55.5156 467 ZM52.1875 463.8906 Q52.1875 465.0938 52.6875 465.6875 Q53.1875 466.2656 53.875 466.2656 Q54.5625 466.2656 55.0469 465.7031 Q55.5312 465.1406 55.5312 463.9844 Q55.5312 462.7031 55.0312 462.1094 Q54.5469 461.5156 53.8281 461.5156 Q53.125 461.5156 52.6562 462.0938 Q52.1875 462.6562 52.1875 463.8906 ZM62.4609 467 L61.4766 467 L61.4766 458.4062 L62.5391 458.4062 L62.5391 461.4688 Q63.2109 460.6406 64.2422 460.6406 Q64.8203 460.6406 65.3203 460.875 Q65.8359 461.0938 66.1641 461.5156 Q66.5078 461.9375 66.6953 462.5312 Q66.8828 463.125 66.8828 463.7969 Q66.8828 465.3906 66.0859 466.2656 Q65.2891 467.1406 64.1953 467.1406 Q63.0859 467.1406 62.4609 466.2188 L62.4609 467 ZM62.4453 463.8438 Q62.4453 464.9531 62.7578 465.4531 Q63.2578 466.2656 64.1016 466.2656 Q64.7891 466.2656 65.2891 465.6719 Q65.8047 465.0781 65.8047 463.875 Q65.8047 462.6562 65.3203 462.0781 Q64.8359 461.5 64.1484 461.5 Q63.4609 461.5 62.9453 462.1094 Q62.4453 462.7031 62.4453 463.8438 ZM68.1191 469.3906 L67.9941 468.4062 Q68.3379 468.5 68.6035 468.5 Q68.9473 468.5 69.1504 468.375 Q69.3691 468.2656 69.5098 468.0625 Q69.6035 467.8906 69.8379 467.2656 Q69.8535 467.1875 69.9316 467.0156 L67.5566 460.7812 L68.6973 460.7812 L69.9941 464.375 Q70.2441 465.0625 70.4473 465.8281 Q70.6348 465.0938 70.8848 464.4062 L72.2129 460.7812 L73.2598 460.7812 L70.9004 467.1094 Q70.5098 468.125 70.3066 468.5156 Q70.0254 469.0469 69.6504 469.2812 Q69.291 469.5312 68.791 469.5312 Q68.4941 469.5312 68.1191 469.3906 ZM77.4531 469.3906 L77.3281 468.4062 Q77.6719 468.5 77.9375 468.5 Q78.2812 468.5 78.4844 468.375 Q78.7031 468.2656 78.8438 468.0625 Q78.9375 467.8906 79.1719 467.2656 Q79.1875 467.1875 79.2656 467.0156 L76.8906 460.7812 L78.0312 460.7812 L79.3281 464.375 Q79.5781 465.0625 79.7812 465.8281 Q79.9688 465.0938 80.2188 464.4062 L81.5469 460.7812 L82.5938 460.7812 L80.2344 467.1094 Q79.8438 468.125 79.6406 468.5156 Q79.3594 469.0469 78.9844 469.2812 Q78.625 469.5312 78.125 469.5312 Q77.8281 469.5312 77.4531 469.3906 ZM83.6875 467 L83.6875 458.4062 L89.4844 458.4062 L89.4844 459.4219 L84.8281 459.4219 L84.8281 462.0781 L88.8594 462.0781 L88.8594 463.0938 L84.8281 463.0938 L84.8281 467 L83.6875 467 ZM90.8301 459.625 L90.8301 458.4062 L91.8926 458.4062 L91.8926 459.625 L90.8301 459.625 ZM90.8301 467 L90.8301 460.7812 L91.8926 460.7812 L91.8926 467 L90.8301 467 ZM93.4648 467 L93.4648 458.4062 L94.5273 458.4062 L94.5273 467 L93.4648 467 ZM100.4121 465 L101.5059 465.125 Q101.2559 466.0781 100.5527 466.6094 Q99.8496 467.1406 98.7715 467.1406 Q97.4121 467.1406 96.5996 466.2969 Q95.8027 465.4531 95.8027 463.9375 Q95.8027 462.375 96.6152 461.5156 Q97.4277 460.6406 98.709 460.6406 Q99.959 460.6406 100.7402 461.4844 Q101.5371 462.3281 101.5371 463.875 Q101.5371 463.9688 101.5371 464.1562 L96.8965 464.1562 Q96.959 465.1875 97.4746 465.7344 Q97.9902 466.2656 98.7715 466.2656 Q99.3496 466.2656 99.7559 465.9688 Q100.1777 465.6562 100.4121 465 ZM96.959 463.2969 L100.4277 463.2969 Q100.3652 462.5 100.0371 462.1094 Q99.5215 461.5 98.7246 461.5 Q97.9902 461.5 97.4902 461.9844 Q97.0059 462.4688 96.959 463.2969 ZM102.4141 465.1406 L103.4453 464.9844 Q103.5391 465.6094 103.9297 465.9375 Q104.3359 466.2656 105.0703 466.2656 Q105.7891 466.2656 106.1328 465.9844 Q106.4922 465.6875 106.4922 465.2812 Q106.4922 464.9219 106.1797 464.7188 Q105.9609 464.5781 105.1016 464.3594 Q103.9453 464.0625 103.4922 463.8594 Q103.0547 463.6406 102.8203 463.2656 Q102.5859 462.8906 102.5859 462.4219 Q102.5859 462.0156 102.7734 461.6562 Q102.9609 461.2969 103.2891 461.0625 Q103.5391 460.8906 103.9609 460.7656 Q104.3828 460.6406 104.8828 460.6406 Q105.6016 460.6406 106.1484 460.8594 Q106.7109 461.0625 106.9766 461.4219 Q107.2422 461.7812 107.3359 462.375 L106.3047 462.5156 Q106.2422 462.0469 105.8984 461.7812 Q105.5703 461.5 104.9453 461.5 Q104.2266 461.5 103.9141 461.75 Q103.6016 461.9844 103.6016 462.3125 Q103.6016 462.5156 103.7266 462.6719 Q103.8672 462.8438 104.1328 462.9531 Q104.2891 463.0156 105.0703 463.2188 Q106.1953 463.5312 106.6328 463.7188 Q107.0703 463.9062 107.3203 464.2656 Q107.5703 464.625 107.5703 465.1719 Q107.5703 465.7031 107.2578 466.1719 Q106.9609 466.625 106.3828 466.8906 Q105.8047 467.1406 105.0703 467.1406 Q103.8516 467.1406 103.2109 466.6406 Q102.5859 466.125 102.4141 465.1406 Z" stroke="none" clip-path="url(#clipPath1)"/>
    </g>
    <g fill="rgb(255,255,204)" transform="matrix(0.6602,0,0,0.6602,8.9315,-24.2526)" stroke="rgb(255,255,204)">
      <rect x="203.5" width="193" height="105.7724" y="647.1138" clip-path="url(#clipPath2)" stroke="none"/>
    </g>
    <g fill="gray" stroke-miterlimit="1.45" transform="matrix(0.6602,0,0,0.6602,8.9315,-24.2526)" stroke-linecap="butt" stroke="gray">
      <rect fill="none" x="203.5" width="193" height="105.7724" y="647.1138" clip-path="url(#clipPath2)"/>
      <text x="221.5" y="664.7385" clip-path="url(#clipPath2)" fill="black" font-family="'Inter'" stroke="none" xml:space="preserve">authuser_cleaneravailability</text>
      <line stroke-linecap="square" clip-path="url(#clipPath2)" fill="none" x1="204" x2="395" y1="671" y2="671" stroke-miterlimit="10"/>
    </g>
    <g stroke-linecap="round" transform="matrix(0.4401,0,0,0.4401,145.9244,421.1468)" fill="rgb(110,110,110)" image-rendering="optimizeQuality" stroke-linejoin="round" stroke="rgb(110,110,110)" stroke-width="2" stroke-miterlimit="4">
      <path fill="none" d="M12.4 2.7 C13.3 1.8 14.9 1.8 15.8 2.7 L21.3 8.2 C22.2 9.1 22.2 10.7 21.3 11.6 L17.6 15.3 C16.7 16.2 15.1 16.2 14.2 15.3 L8.7 9.8 C7.8 8.9 7.8 7.3 8.7 6.4 Z" clip-path="url(#clipPath4)"/>
    </g>
    <g stroke-linecap="round" transform="matrix(0.4401,0,0,0.4401,145.9244,421.1468)" fill="rgb(110,110,110)" image-rendering="optimizeQuality" stroke-linejoin="round" stroke="rgb(110,110,110)" stroke-width="2" stroke-miterlimit="4">
      <path fill="none" d="M14 7 L17 10" clip-path="url(#clipPath4)"/>
    </g>
    <g stroke-linecap="round" transform="matrix(0.4401,0,0,0.4401,145.9244,421.1468)" fill="rgb(110,110,110)" image-rendering="optimizeQuality" stroke-linejoin="round" stroke="rgb(110,110,110)" stroke-width="2" stroke-miterlimit="4">
      <path fill="none" d="M9.4 10.6 L2 18 L2 21 C2 21.6 2.4 22 3 22 L7 22 L7 19 L10 19 L10 16 L12 16 L13.4 14.6" clip-path="url(#clipPath4)"/>
    </g>
    <g stroke-miterlimit="1.45" font-size="11px" font-weight="bold" font-family="'Inter'" transform="matrix(0.6602,0,0,0.6602,8.9315,-24.2526)" stroke-linecap="butt">
      <text x="229.5" xml:space="preserve" y="688.2924" clip-path="url(#clipPath2)" stroke="none">id</text>
    </g>
    <g stroke-miterlimit="1.45" font-size="11px" font-family="'Inter'" transform="matrix(0.6602,0,0,0.6602,8.9315,-24.2526)" stroke-linecap="butt">
      <text x="319.5" xml:space="preserve" y="688.2924" clip-path="url(#clipPath2)" stroke="none">INTEGER</text>
      <text x="229.5" xml:space="preserve" y="707.6049" clip-path="url(#clipPath2)" font-weight="bold" stroke="none">date</text>
      <text x="319.5" xml:space="preserve" y="707.6049" clip-path="url(#clipPath2)" stroke="none">DATE</text>
      <text x="229.5" xml:space="preserve" y="726.9174" clip-path="url(#clipPath2)" font-weight="bold" stroke="none">available_hours</text>
      <text x="319.5" xml:space="preserve" y="726.9174" clip-path="url(#clipPath2)" stroke="none">TEXT</text>
      <text x="229.5" xml:space="preserve" y="746.2299" clip-path="url(#clipPath2)" font-weight="bold" stroke="none">cleaner_id</text>
      <text x="319.5" xml:space="preserve" y="746.2299" clip-path="url(#clipPath2)" stroke="none">BIGINT</text>
    </g>
    <g stroke-linecap="round" transform="matrix(0.4401,0,0,0.4401,256.1789,459.3975)" fill="rgb(110,110,110)" image-rendering="optimizeQuality" stroke-linejoin="round" stroke="rgb(110,110,110)" stroke-width="2" stroke-miterlimit="4">
      <path fill="none" d="M7 7 L17 7 L17 17" clip-path="url(#clipPath4)"/>
    </g>
    <g stroke-linecap="round" transform="matrix(0.4401,0,0,0.4401,256.1789,459.3975)" fill="rgb(110,110,110)" image-rendering="optimizeQuality" stroke-linejoin="round" stroke="rgb(110,110,110)" stroke-width="2" stroke-miterlimit="4">
      <path fill="none" d="M7 17 L17 7" clip-path="url(#clipPath4)"/>
    </g>
    <g fill="rgb(255,255,204)" transform="matrix(0.6602,0,0,0.6602,8.9315,-24.2526)" stroke="rgb(255,255,204)">
      <rect x="213.5" width="173" height="318.2099" y="265.8951" clip-path="url(#clipPath2)" stroke="none"/>
    </g>
    <g fill="gray" stroke-miterlimit="1.45" transform="matrix(0.6602,0,0,0.6602,8.9315,-24.2526)" stroke-linecap="butt" stroke="gray">
      <rect fill="none" x="213.5" width="173" height="318.2099" y="265.8951" clip-path="url(#clipPath2)"/>
      <text x="261" y="283.5198" clip-path="url(#clipPath2)" fill="black" font-family="'Inter'" stroke="none" xml:space="preserve">authuser_user</text>
      <line stroke-linecap="square" clip-path="url(#clipPath2)" fill="none" x1="214" x2="385" y1="290" y2="290" stroke-miterlimit="10"/>
    </g>
    <g stroke-linecap="round" transform="matrix(0.4401,0,0,0.4401,152.5265,169.4636)" fill="rgb(110,110,110)" image-rendering="optimizeQuality" stroke-linejoin="round" stroke="rgb(110,110,110)" stroke-width="2" stroke-miterlimit="4">
      <path fill="none" d="M12.4 2.7 C13.3 1.8 14.9 1.8 15.8 2.7 L21.3 8.2 C22.2 9.1 22.2 10.7 21.3 11.6 L17.6 15.3 C16.7 16.2 15.1 16.2 14.2 15.3 L8.7 9.8 C7.8 8.9 7.8 7.3 8.7 6.4 Z" clip-path="url(#clipPath4)"/>
    </g>
    <g stroke-linecap="round" transform="matrix(0.4401,0,0,0.4401,152.5265,169.4636)" fill="rgb(110,110,110)" image-rendering="optimizeQuality" stroke-linejoin="round" stroke="rgb(110,110,110)" stroke-width="2" stroke-miterlimit="4">
      <path fill="none" d="M14 7 L17 10" clip-path="url(#clipPath4)"/>
    </g>
    <g stroke-linecap="round" transform="matrix(0.4401,0,0,0.4401,152.5265,169.4636)" fill="rgb(110,110,110)" image-rendering="optimizeQuality" stroke-linejoin="round" stroke="rgb(110,110,110)" stroke-width="2" stroke-miterlimit="4">
      <path fill="none" d="M9.4 10.6 L2 18 L2 21 C2 21.6 2.4 22 3 22 L7 22 L7 19 L10 19 L10 16 L12 16 L13.4 14.6" clip-path="url(#clipPath4)"/>
    </g>
    <g stroke-miterlimit="1.45" font-size="11px" font-weight="bold" font-family="'Inter'" transform="matrix(0.6602,0,0,0.6602,8.9315,-24.2526)" stroke-linecap="butt">
      <text x="239.5" xml:space="preserve" y="307.0737" clip-path="url(#clipPath2)" stroke="none">id</text>
    </g>
    <g stroke-miterlimit="1.45" font-size="11px" font-family="'Inter'" transform="matrix(0.6602,0,0,0.6602,8.9315,-24.2526)" stroke-linecap="butt">
      <text x="316.5" xml:space="preserve" y="307.0737" clip-path="url(#clipPath2)" stroke="none">INTEGER</text>
      <text x="239.5" xml:space="preserve" y="326.3862" clip-path="url(#clipPath2)" font-weight="bold" stroke="none">password</text>
      <text x="316.5" xml:space="preserve" y="326.3862" clip-path="url(#clipPath2)" stroke="none">VARCHAR</text>
      <text x="239.5" xml:space="preserve" y="345.6987" clip-path="url(#clipPath2)" font-weight="bold" stroke="none">last_login</text>
      <text x="316.5" xml:space="preserve" y="345.6987" clip-path="url(#clipPath2)" stroke="none">DATETIME</text>
      <text x="239.5" xml:space="preserve" y="365.0112" clip-path="url(#clipPath2)" font-weight="bold" stroke="none">is_superuser</text>
      <text x="316.5" xml:space="preserve" y="365.0112" clip-path="url(#clipPath2)" stroke="none">BOOL</text>
      <text x="239.5" xml:space="preserve" y="384.3237" clip-path="url(#clipPath2)" font-weight="bold" stroke="none">username</text>
      <text x="316.5" xml:space="preserve" y="384.3237" clip-path="url(#clipPath2)" stroke="none">VARCHAR</text>
      <text x="239.5" xml:space="preserve" y="403.6362" clip-path="url(#clipPath2)" font-weight="bold" stroke="none">first_name</text>
      <text x="316.5" xml:space="preserve" y="403.6362" clip-path="url(#clipPath2)" stroke="none">VARCHAR</text>
      <text x="239.5" xml:space="preserve" y="422.9487" clip-path="url(#clipPath2)" font-weight="bold" stroke="none">last_name</text>
      <text x="316.5" xml:space="preserve" y="422.9487" clip-path="url(#clipPath2)" stroke="none">VARCHAR</text>
      <text x="239.5" xml:space="preserve" y="442.2612" clip-path="url(#clipPath2)" font-weight="bold" stroke="none">email</text>
      <text x="316.5" xml:space="preserve" y="442.2612" clip-path="url(#clipPath2)" stroke="none">VARCHAR</text>
      <text x="239.5" xml:space="preserve" y="461.5737" clip-path="url(#clipPath2)" font-weight="bold" stroke="none">is_staff</text>
      <text x="316.5" xml:space="preserve" y="461.5737" clip-path="url(#clipPath2)" stroke="none">BOOL</text>
      <text x="239.5" xml:space="preserve" y="480.8862" clip-path="url(#clipPath2)" font-weight="bold" stroke="none">is_active</text>
      <text x="316.5" xml:space="preserve" y="480.8862" clip-path="url(#clipPath2)" stroke="none">BOOL</text>
      <text x="239.5" xml:space="preserve" y="500.1987" clip-path="url(#clipPath2)" font-weight="bold" stroke="none">date_joined</text>
      <text x="316.5" xml:space="preserve" y="500.1987" clip-path="url(#clipPath2)" stroke="none">DATETIME</text>
      <text x="239.5" xml:space="preserve" y="519.5112" clip-path="url(#clipPath2)" font-weight="bold" stroke="none">role</text>
      <text x="316.5" xml:space="preserve" y="519.5112" clip-path="url(#clipPath2)" stroke="none">VARCHAR</text>
      <text x="239.5" xml:space="preserve" y="538.8237" clip-path="url(#clipPath2)" font-weight="bold" stroke="none">phone</text>
      <text x="316.5" xml:space="preserve" y="538.8237" clip-path="url(#clipPath2)" stroke="none">VARCHAR</text>
      <text x="239.5" xml:space="preserve" y="558.1362" clip-path="url(#clipPath2)" font-weight="bold" stroke="none">rating</text>
      <text x="316.5" xml:space="preserve" y="558.1362" clip-path="url(#clipPath2)" stroke="none">INTEGER</text>
      <text x="239.5" xml:space="preserve" y="577.4487" clip-path="url(#clipPath2)" font-weight="bold" stroke="none">address</text>
      <text x="316.5" xml:space="preserve" y="577.4487" clip-path="url(#clipPath2)" stroke="none">VARCHAR</text>
    </g>
    <g fill="rgb(255,255,204)" transform="matrix(0.6602,0,0,0.6602,8.9315,-24.2526)" stroke="rgb(255,255,204)">
      <rect x="446.5" width="207" height="240.9599" y="46.1659" clip-path="url(#clipPath2)" stroke="none"/>
    </g>
    <g fill="gray" stroke-miterlimit="1.45" transform="matrix(0.6602,0,0,0.6602,8.9315,-24.2526)" stroke-linecap="butt" stroke="gray">
      <rect fill="none" x="446.5" width="207" height="240.9599" y="46.1659" clip-path="url(#clipPath2)"/>
      <text x="499.5" y="63.7906" clip-path="url(#clipPath2)" fill="black" font-family="'Inter'" stroke="none" xml:space="preserve">bookings_booking</text>
      <line stroke-linecap="square" clip-path="url(#clipPath2)" fill="none" x1="447" x2="652" y1="70" y2="70" stroke-miterlimit="10"/>
    </g>
    <g stroke-linecap="round" transform="matrix(0.4401,0,0,0.4401,306.3547,24.3969)" fill="rgb(110,110,110)" image-rendering="optimizeQuality" stroke-linejoin="round" stroke="rgb(110,110,110)" stroke-width="2" stroke-miterlimit="4">
      <path fill="none" d="M12.4 2.7 C13.3 1.8 14.9 1.8 15.8 2.7 L21.3 8.2 C22.2 9.1 22.2 10.7 21.3 11.6 L17.6 15.3 C16.7 16.2 15.1 16.2 14.2 15.3 L8.7 9.8 C7.8 8.9 7.8 7.3 8.7 6.4 Z" clip-path="url(#clipPath8)"/>
    </g>
    <g stroke-linecap="round" transform="matrix(0.4401,0,0,0.4401,306.3547,24.3969)" fill="rgb(110,110,110)" image-rendering="optimizeQuality" stroke-linejoin="round" stroke="rgb(110,110,110)" stroke-width="2" stroke-miterlimit="4">
      <path fill="none" d="M14 7 L17 10" clip-path="url(#clipPath8)"/>
    </g>
    <g stroke-linecap="round" transform="matrix(0.4401,0,0,0.4401,306.3547,24.3969)" fill="rgb(110,110,110)" image-rendering="optimizeQuality" stroke-linejoin="round" stroke="rgb(110,110,110)" stroke-width="2" stroke-miterlimit="4">
      <path fill="none" d="M9.4 10.6 L2 18 L2 21 C2 21.6 2.4 22 3 22 L7 22 L7 19 L10 19 L10 16 L12 16 L13.4 14.6" clip-path="url(#clipPath8)"/>
    </g>
    <g stroke-miterlimit="1.45" font-size="11px" font-weight="bold" font-family="'Inter'" transform="matrix(0.6602,0,0,0.6602,8.9315,-24.2526)" stroke-linecap="butt">
      <text x="472.5" xml:space="preserve" y="87.3445" clip-path="url(#clipPath2)" stroke="none">id</text>
    </g>
    <g stroke-miterlimit="1.45" font-size="11px" font-family="'Inter'" transform="matrix(0.6602,0,0,0.6602,8.9315,-24.2526)" stroke-linecap="butt">
      <text x="567.5" xml:space="preserve" y="87.3445" clip-path="url(#clipPath2)" stroke="none">INTEGER</text>
      <text x="472.5" xml:space="preserve" y="106.657" clip-path="url(#clipPath2)" font-weight="bold" stroke="none">date</text>
      <text x="567.5" xml:space="preserve" y="106.657" clip-path="url(#clipPath2)" stroke="none">DATE</text>
      <text x="472.5" xml:space="preserve" y="125.9695" clip-path="url(#clipPath2)" font-weight="bold" stroke="none">start_time</text>
      <text x="567.5" xml:space="preserve" y="125.9695" clip-path="url(#clipPath2)" stroke="none">TIME</text>
      <text x="472.5" xml:space="preserve" y="145.282" clip-path="url(#clipPath2)" font-weight="bold" stroke="none">service</text>
      <text x="567.5" xml:space="preserve" y="145.282" clip-path="url(#clipPath2)" stroke="none">VARCHAR</text>
      <text x="472.5" xml:space="preserve" y="164.5945" clip-path="url(#clipPath2)" font-weight="bold" stroke="none">notes</text>
      <text x="567.5" xml:space="preserve" y="164.5945" clip-path="url(#clipPath2)" stroke="none">TEXT</text>
      <text x="472.5" xml:space="preserve" y="183.907" clip-path="url(#clipPath2)" font-weight="bold" stroke="none">created_at</text>
      <text x="567.5" xml:space="preserve" y="183.907" clip-path="url(#clipPath2)" stroke="none">DATETIME</text>
      <text x="472.5" xml:space="preserve" y="203.2195" clip-path="url(#clipPath2)" font-weight="bold" stroke="none">user_id</text>
      <text x="567.5" xml:space="preserve" y="203.2195" clip-path="url(#clipPath2)" stroke="none">BIGINT</text>
    </g>
    <g stroke-linecap="round" transform="matrix(0.4401,0,0,0.4401,425.8521,100.8983)" fill="rgb(110,110,110)" image-rendering="optimizeQuality" stroke-linejoin="round" stroke="rgb(110,110,110)" stroke-width="2" stroke-miterlimit="4">
      <path fill="none" d="M7 7 L17 7 L17 17" clip-path="url(#clipPath4)"/>
    </g>
    <g stroke-linecap="round" transform="matrix(0.4401,0,0,0.4401,425.8521,100.8983)" fill="rgb(110,110,110)" image-rendering="optimizeQuality" stroke-linejoin="round" stroke="rgb(110,110,110)" stroke-width="2" stroke-miterlimit="4">
      <path fill="none" d="M7 17 L17 7" clip-path="url(#clipPath4)"/>
    </g>
    <g stroke-miterlimit="1.45" font-size="11px" font-weight="bold" font-family="'Inter'" transform="matrix(0.6602,0,0,0.6602,8.9315,-24.2526)" stroke-linecap="butt">
      <text x="472.5" xml:space="preserve" y="222.532" clip-path="url(#clipPath2)" stroke="none">end_time</text>
    </g>
    <g stroke-miterlimit="1.45" font-size="11px" font-family="'Inter'" transform="matrix(0.6602,0,0,0.6602,8.9315,-24.2526)" stroke-linecap="butt">
      <text x="567.5" xml:space="preserve" y="222.532" clip-path="url(#clipPath2)" stroke="none">TIME</text>
      <text x="472.5" xml:space="preserve" y="241.8445" clip-path="url(#clipPath2)" font-weight="bold" stroke="none">assigned_id</text>
      <text x="567.5" xml:space="preserve" y="241.8445" clip-path="url(#clipPath2)" stroke="none">BIGINT</text>
    </g>
    <g stroke-linecap="round" transform="matrix(0.4401,0,0,0.4401,425.8521,126.3988)" fill="rgb(110,110,110)" image-rendering="optimizeQuality" stroke-linejoin="round" stroke="rgb(110,110,110)" stroke-width="2" stroke-miterlimit="4">
      <path fill="none" d="M7 7 L17 7 L17 17" clip-path="url(#clipPath11)"/>
    </g>
    <g stroke-linecap="round" transform="matrix(0.4401,0,0,0.4401,425.8521,126.3988)" fill="rgb(110,110,110)" image-rendering="optimizeQuality" stroke-linejoin="round" stroke="rgb(110,110,110)" stroke-width="2" stroke-miterlimit="4">
      <path fill="none" d="M7 17 L17 7" clip-path="url(#clipPath11)"/>
    </g>
    <g stroke-miterlimit="1.45" font-size="11px" font-weight="bold" font-family="'Inter'" transform="matrix(0.6602,0,0,0.6602,8.9315,-24.2526)" stroke-linecap="butt">
      <text x="472.5" xml:space="preserve" y="261.157" clip-path="url(#clipPath2)" stroke="none">cleaner_rating</text>
    </g>
    <g stroke-miterlimit="1.45" font-size="11px" font-family="'Inter'" transform="matrix(0.6602,0,0,0.6602,8.9315,-24.2526)" stroke-linecap="butt">
      <text x="567.5" xml:space="preserve" y="261.157" clip-path="url(#clipPath2)" stroke="none">INTEGER</text>
      <text x="472.5" xml:space="preserve" y="280.4695" clip-path="url(#clipPath2)" font-weight="bold" stroke="none">customer_rating</text>
      <text x="567.5" xml:space="preserve" y="280.4695" clip-path="url(#clipPath2)" stroke="none">INTEGER</text>
    </g>
    <g fill="rgb(255,255,204)" transform="matrix(0.6602,0,0,0.6602,8.9315,-24.2526)" stroke="rgb(255,255,204)">
      <rect x="-3.5" width="157" height="86.4599" y="381.7701" clip-path="url(#clipPath2)" stroke="none"/>
    </g>
    <g fill="gray" stroke-miterlimit="1.45" transform="matrix(0.6602,0,0,0.6602,8.9315,-24.2526)" stroke-linecap="butt" stroke="gray">
      <rect fill="none" x="-3.5" width="157" height="86.4599" y="381.7701" clip-path="url(#clipPath2)"/>
      <text x="14.5" y="399.3948" clip-path="url(#clipPath2)" fill="black" font-family="'Inter'" stroke="none" xml:space="preserve">authuser_user_groups</text>
      <line stroke-linecap="square" clip-path="url(#clipPath2)" fill="none" x1="-2" x2="152" y1="406" y2="406" stroke-miterlimit="10"/>
    </g>
    <g stroke-linecap="round" transform="matrix(0.4401,0,0,0.4401,9.2616,245.965)" fill="rgb(110,110,110)" image-rendering="optimizeQuality" stroke-linejoin="round" stroke="rgb(110,110,110)" stroke-width="2" stroke-miterlimit="4">
      <path fill="none" d="M12.4 2.7 C13.3 1.8 14.9 1.8 15.8 2.7 L21.3 8.2 C22.2 9.1 22.2 10.7 21.3 11.6 L17.6 15.3 C16.7 16.2 15.1 16.2 14.2 15.3 L8.7 9.8 C7.8 8.9 7.8 7.3 8.7 6.4 Z" clip-path="url(#clipPath11)"/>
    </g>
    <g stroke-linecap="round" transform="matrix(0.4401,0,0,0.4401,9.2616,245.965)" fill="rgb(110,110,110)" image-rendering="optimizeQuality" stroke-linejoin="round" stroke="rgb(110,110,110)" stroke-width="2" stroke-miterlimit="4">
      <path fill="none" d="M14 7 L17 10" clip-path="url(#clipPath11)"/>
    </g>
    <g stroke-linecap="round" transform="matrix(0.4401,0,0,0.4401,9.2616,245.965)" fill="rgb(110,110,110)" image-rendering="optimizeQuality" stroke-linejoin="round" stroke="rgb(110,110,110)" stroke-width="2" stroke-miterlimit="4">
      <path fill="none" d="M9.4 10.6 L2 18 L2 21 C2 21.6 2.4 22 3 22 L7 22 L7 19 L10 19 L10 16 L12 16 L13.4 14.6" clip-path="url(#clipPath11)"/>
    </g>
    <g stroke-miterlimit="1.45" font-size="11px" font-weight="bold" font-family="'Inter'" transform="matrix(0.6602,0,0,0.6602,8.9315,-24.2526)" stroke-linecap="butt">
      <text x="22.5" xml:space="preserve" y="422.9487" clip-path="url(#clipPath2)" stroke="none">id</text>
    </g>
    <g stroke-miterlimit="1.45" font-size="11px" font-family="'Inter'" transform="matrix(0.6602,0,0,0.6602,8.9315,-24.2526)" stroke-linecap="butt">
      <text x="76.5" xml:space="preserve" y="422.9487" clip-path="url(#clipPath2)" stroke="none">INTEGER</text>
      <text x="22.5" xml:space="preserve" y="442.2612" clip-path="url(#clipPath2)" font-weight="bold" stroke="none">user_id</text>
      <text x="76.5" xml:space="preserve" y="442.2612" clip-path="url(#clipPath2)" stroke="none">BIGINT</text>
    </g>
    <g stroke-linecap="round" transform="matrix(0.4401,0,0,0.4401,95.7487,258.7153)" fill="rgb(110,110,110)" image-rendering="optimizeQuality" stroke-linejoin="round" stroke="rgb(110,110,110)" stroke-width="2" stroke-miterlimit="4">
      <path fill="none" d="M7 7 L17 7 L17 17" clip-path="url(#clipPath4)"/>
    </g>
    <g stroke-linecap="round" transform="matrix(0.4401,0,0,0.4401,95.7487,258.7153)" fill="rgb(110,110,110)" image-rendering="optimizeQuality" stroke-linejoin="round" stroke="rgb(110,110,110)" stroke-width="2" stroke-miterlimit="4">
      <path fill="none" d="M7 17 L17 7" clip-path="url(#clipPath4)"/>
    </g>
    <g stroke-miterlimit="1.45" font-size="11px" font-weight="bold" font-family="'Inter'" transform="matrix(0.6602,0,0,0.6602,8.9315,-24.2526)" stroke-linecap="butt">
      <text x="22.5" xml:space="preserve" y="461.5737" clip-path="url(#clipPath2)" stroke="none">group_id</text>
    </g>
    <g stroke-miterlimit="1.45" font-size="11px" font-family="'Inter'" transform="matrix(0.6602,0,0,0.6602,8.9315,-24.2526)" stroke-linecap="butt">
      <text x="76.5" xml:space="preserve" y="461.5737" clip-path="url(#clipPath2)" stroke="none">INTEGER</text>
    </g>
    <g stroke-linecap="round" transform="matrix(0.4401,0,0,0.4401,95.7487,271.4655)" fill="rgb(110,110,110)" image-rendering="optimizeQuality" stroke-linejoin="round" stroke="rgb(110,110,110)" stroke-width="2" stroke-miterlimit="4">
      <path fill="none" d="M7 7 L17 7 L17 17" clip-path="url(#clipPath4)"/>
    </g>
    <g stroke-linecap="round" transform="matrix(0.4401,0,0,0.4401,95.7487,271.4655)" fill="rgb(110,110,110)" image-rendering="optimizeQuality" stroke-linejoin="round" stroke="rgb(110,110,110)" stroke-width="2" stroke-miterlimit="4">
      <path fill="none" d="M7 17 L17 7" clip-path="url(#clipPath4)"/>
    </g>
    <g fill="rgb(255,255,204)" transform="matrix(0.6602,0,0,0.6602,8.9315,-24.2526)" stroke="rgb(255,255,204)">
      <rect x="202" width="196" height="86.4599" y="131.7701" clip-path="url(#clipPath2)" stroke="none"/>
    </g>
    <g fill="gray" stroke-miterlimit="1.45" transform="matrix(0.6602,0,0,0.6602,8.9315,-24.2526)" stroke-linecap="butt" stroke="gray">
      <rect fill="none" x="202" width="196" height="86.4599" y="131.7701" clip-path="url(#clipPath2)"/>
      <text x="211" y="149.3948" clip-path="url(#clipPath2)" fill="black" font-family="'Inter'" stroke="none" xml:space="preserve">authuser_user_user_permissions</text>
      <line stroke-linecap="square" clip-path="url(#clipPath2)" fill="none" x1="203" x2="397" y1="156" y2="156" stroke-miterlimit="10"/>
    </g>
    <g stroke-linecap="round" transform="matrix(0.4401,0,0,0.4401,144.9341,80.9133)" fill="rgb(110,110,110)" image-rendering="optimizeQuality" stroke-linejoin="round" stroke="rgb(110,110,110)" stroke-width="2" stroke-miterlimit="4">
      <path fill="none" d="M12.4 2.7 C13.3 1.8 14.9 1.8 15.8 2.7 L21.3 8.2 C22.2 9.1 22.2 10.7 21.3 11.6 L17.6 15.3 C16.7 16.2 15.1 16.2 14.2 15.3 L8.7 9.8 C7.8 8.9 7.8 7.3 8.7 6.4 Z" clip-path="url(#clipPath11)"/>
    </g>
    <g stroke-linecap="round" transform="matrix(0.4401,0,0,0.4401,144.9341,80.9133)" fill="rgb(110,110,110)" image-rendering="optimizeQuality" stroke-linejoin="round" stroke="rgb(110,110,110)" stroke-width="2" stroke-miterlimit="4">
      <path fill="none" d="M14 7 L17 10" clip-path="url(#clipPath11)"/>
    </g>
    <g stroke-linecap="round" transform="matrix(0.4401,0,0,0.4401,144.9341,80.9133)" fill="rgb(110,110,110)" image-rendering="optimizeQuality" stroke-linejoin="round" stroke="rgb(110,110,110)" stroke-width="2" stroke-miterlimit="4">
      <path fill="none" d="M9.4 10.6 L2 18 L2 21 C2 21.6 2.4 22 3 22 L7 22 L7 19 L10 19 L10 16 L12 16 L13.4 14.6" clip-path="url(#clipPath11)"/>
    </g>
    <g stroke-miterlimit="1.45" font-size="11px" font-weight="bold" font-family="'Inter'" transform="matrix(0.6602,0,0,0.6602,8.9315,-24.2526)" stroke-linecap="butt">
      <text x="228" xml:space="preserve" y="172.9487" clip-path="url(#clipPath2)" stroke="none">id</text>
    </g>
    <g stroke-miterlimit="1.45" font-size="11px" font-family="'Inter'" transform="matrix(0.6602,0,0,0.6602,8.9315,-24.2526)" stroke-linecap="butt">
      <text x="310" xml:space="preserve" y="172.9487" clip-path="url(#clipPath2)" stroke="none">INTEGER</text>
      <text x="228" xml:space="preserve" y="192.2612" clip-path="url(#clipPath2)" font-weight="bold" stroke="none">user_id</text>
      <text x="310" xml:space="preserve" y="192.2612" clip-path="url(#clipPath2)" stroke="none">BIGINT</text>
    </g>
    <g stroke-linecap="round" transform="matrix(0.4401,0,0,0.4401,257.1693,93.6636)" fill="rgb(110,110,110)" image-rendering="optimizeQuality" stroke-linejoin="round" stroke="rgb(110,110,110)" stroke-width="2" stroke-miterlimit="4">
      <path fill="none" d="M7 7 L17 7 L17 17" clip-path="url(#clipPath17)"/>
    </g>
    <g stroke-linecap="round" transform="matrix(0.4401,0,0,0.4401,257.1693,93.6636)" fill="rgb(110,110,110)" image-rendering="optimizeQuality" stroke-linejoin="round" stroke="rgb(110,110,110)" stroke-width="2" stroke-miterlimit="4">
      <path fill="none" d="M7 17 L17 7" clip-path="url(#clipPath17)"/>
    </g>
    <g stroke-miterlimit="1.45" font-size="11px" font-weight="bold" font-family="'Inter'" transform="matrix(0.6602,0,0,0.6602,8.9315,-24.2526)" stroke-linecap="butt">
      <text x="228" xml:space="preserve" y="211.5737" clip-path="url(#clipPath2)" stroke="none">permission_id</text>
    </g>
    <g stroke-miterlimit="1.45" font-size="11px" font-family="'Inter'" transform="matrix(0.6602,0,0,0.6602,8.9315,-24.2526)" stroke-linecap="butt">
      <text x="310" xml:space="preserve" y="211.5737" clip-path="url(#clipPath2)" stroke="none">INTEGER</text>
    </g>
    <g stroke-linecap="round" transform="matrix(0.4401,0,0,0.4401,257.1693,106.4138)" fill="rgb(110,110,110)" image-rendering="optimizeQuality" stroke-linejoin="round" stroke="rgb(110,110,110)" stroke-width="2" stroke-miterlimit="4">
      <path fill="none" d="M7 7 L17 7 L17 17" clip-path="url(#clipPath8)"/>
    </g>
    <g stroke-linecap="round" transform="matrix(0.4401,0,0,0.4401,257.1693,106.4138)" fill="rgb(110,110,110)" image-rendering="optimizeQuality" stroke-linejoin="round" stroke="rgb(110,110,110)" stroke-width="2" stroke-miterlimit="4">
      <path fill="none" d="M7 17 L17 7" clip-path="url(#clipPath8)"/>
    </g>
    <g fill="rgb(255,255,204)" transform="matrix(0.6602,0,0,0.6602,8.9315,-24.2526)" stroke="rgb(255,255,204)">
      <rect x="590" width="270" height="183.0224" y="333.4888" clip-path="url(#clipPath2)" stroke="none"/>
    </g>
    <g fill="gray" stroke-miterlimit="1.45" transform="matrix(0.6602,0,0,0.6602,8.9315,-24.2526)" stroke-linecap="butt" stroke="gray">
      <rect fill="none" x="590" width="270" height="183.0224" y="333.4888" clip-path="url(#clipPath2)"/>
      <text x="675.5" y="351.1135" clip-path="url(#clipPath2)" fill="black" font-family="'Inter'" stroke="none" xml:space="preserve">django_admin_log</text>
      <line stroke-linecap="square" clip-path="url(#clipPath2)" fill="none" x1="591" x2="859" y1="358" y2="358" stroke-miterlimit="10"/>
    </g>
    <g stroke-linecap="round" transform="matrix(0.4401,0,0,0.4401,401.0943,214.0894)" fill="rgb(110,110,110)" image-rendering="optimizeQuality" stroke-linejoin="round" stroke="rgb(110,110,110)" stroke-width="2" stroke-miterlimit="4">
      <path fill="none" d="M12.4 2.7 C13.3 1.8 14.9 1.8 15.8 2.7 L21.3 8.2 C22.2 9.1 22.2 10.7 21.3 11.6 L17.6 15.3 C16.7 16.2 15.1 16.2 14.2 15.3 L8.7 9.8 C7.8 8.9 7.8 7.3 8.7 6.4 Z" clip-path="url(#clipPath11)"/>
    </g>
    <g stroke-linecap="round" transform="matrix(0.4401,0,0,0.4401,401.0943,214.0894)" fill="rgb(110,110,110)" image-rendering="optimizeQuality" stroke-linejoin="round" stroke="rgb(110,110,110)" stroke-width="2" stroke-miterlimit="4">
      <path fill="none" d="M14 7 L17 10" clip-path="url(#clipPath11)"/>
    </g>
    <g stroke-linecap="round" transform="matrix(0.4401,0,0,0.4401,401.0943,214.0894)" fill="rgb(110,110,110)" image-rendering="optimizeQuality" stroke-linejoin="round" stroke="rgb(110,110,110)" stroke-width="2" stroke-miterlimit="4">
      <path fill="none" d="M9.4 10.6 L2 18 L2 21 C2 21.6 2.4 22 3 22 L7 22 L7 19 L10 19 L10 16 L12 16 L13.4 14.6" clip-path="url(#clipPath11)"/>
    </g>
    <g stroke-miterlimit="1.45" font-size="11px" font-weight="bold" font-family="'Inter'" transform="matrix(0.6602,0,0,0.6602,8.9315,-24.2526)" stroke-linecap="butt">
      <text x="616" xml:space="preserve" y="374.6674" clip-path="url(#clipPath2)" stroke="none">id</text>
    </g>
    <g stroke-miterlimit="1.45" font-size="11px" font-family="'Inter'" transform="matrix(0.6602,0,0,0.6602,8.9315,-24.2526)" stroke-linecap="butt">
      <text x="716" xml:space="preserve" y="374.6674" clip-path="url(#clipPath2)" stroke="none">INTEGER</text>
      <text x="616" xml:space="preserve" y="393.9799" clip-path="url(#clipPath2)" font-weight="bold" stroke="none">object_id</text>
      <text x="716" xml:space="preserve" y="393.9799" clip-path="url(#clipPath2)" stroke="none">TEXT</text>
      <text x="616" xml:space="preserve" y="413.2924" clip-path="url(#clipPath2)" font-weight="bold" stroke="none">object_repr</text>
      <text x="716" xml:space="preserve" y="413.2924" clip-path="url(#clipPath2)" stroke="none">VARCHAR</text>
      <text x="616" xml:space="preserve" y="432.6049" clip-path="url(#clipPath2)" font-weight="bold" stroke="none">action_flag</text>
      <text x="716" xml:space="preserve" y="432.6049" clip-path="url(#clipPath2)" stroke="none">SMALLINT UNSIGNED</text>
      <text x="616" xml:space="preserve" y="451.9174" clip-path="url(#clipPath2)" font-weight="bold" stroke="none">change_message</text>
      <text x="716" xml:space="preserve" y="451.9174" clip-path="url(#clipPath2)" stroke="none">TEXT</text>
      <text x="616" xml:space="preserve" y="471.2299" clip-path="url(#clipPath2)" font-weight="bold" stroke="none">content_type_id</text>
      <text x="716" xml:space="preserve" y="471.2299" clip-path="url(#clipPath2)" stroke="none">INTEGER</text>
    </g>
    <g stroke-linecap="round" transform="matrix(0.4401,0,0,0.4401,562.1848,277.8406)" fill="rgb(110,110,110)" image-rendering="optimizeQuality" stroke-linejoin="round" stroke="rgb(110,110,110)" stroke-width="2" stroke-miterlimit="4">
      <path fill="none" d="M7 7 L17 7 L17 17" clip-path="url(#clipPath8)"/>
    </g>
    <g stroke-linecap="round" transform="matrix(0.4401,0,0,0.4401,562.1848,277.8406)" fill="rgb(110,110,110)" image-rendering="optimizeQuality" stroke-linejoin="round" stroke="rgb(110,110,110)" stroke-width="2" stroke-miterlimit="4">
      <path fill="none" d="M7 17 L17 7" clip-path="url(#clipPath8)"/>
    </g>
    <g stroke-miterlimit="1.45" font-size="11px" font-weight="bold" font-family="'Inter'" transform="matrix(0.6602,0,0,0.6602,8.9315,-24.2526)" stroke-linecap="butt">
      <text x="616" xml:space="preserve" y="490.5424" clip-path="url(#clipPath2)" stroke="none">user_id</text>
    </g>
    <g stroke-miterlimit="1.45" font-size="11px" font-family="'Inter'" transform="matrix(0.6602,0,0,0.6602,8.9315,-24.2526)" stroke-linecap="butt">
      <text x="716" xml:space="preserve" y="490.5424" clip-path="url(#clipPath2)" stroke="none">BIGINT</text>
    </g>
    <g stroke-linecap="round" transform="matrix(0.4401,0,0,0.4401,562.1848,290.5909)" fill="rgb(110,110,110)" image-rendering="optimizeQuality" stroke-linejoin="round" stroke="rgb(110,110,110)" stroke-width="2" stroke-miterlimit="4">
      <path fill="none" d="M7 7 L17 7 L17 17" clip-path="url(#clipPath8)"/>
    </g>
    <g stroke-linecap="round" transform="matrix(0.4401,0,0,0.4401,562.1848,290.5909)" fill="rgb(110,110,110)" image-rendering="optimizeQuality" stroke-linejoin="round" stroke="rgb(110,110,110)" stroke-width="2" stroke-miterlimit="4">
      <path fill="none" d="M7 17 L17 7" clip-path="url(#clipPath8)"/>
    </g>
    <g stroke-miterlimit="1.45" font-size="11px" font-weight="bold" font-family="'Inter'" transform="matrix(0.6602,0,0,0.6602,8.9315,-24.2526)" stroke-linecap="butt">
      <text x="616" xml:space="preserve" y="509.8549" clip-path="url(#clipPath2)" stroke="none">action_time</text>
    </g>
    <g stroke-miterlimit="1.45" font-size="11px" font-family="'Inter'" transform="matrix(0.6602,0,0,0.6602,8.9315,-24.2526)" stroke-linecap="butt">
      <text x="716" xml:space="preserve" y="509.8549" clip-path="url(#clipPath2)" stroke="none">DATETIME</text>
    </g>
    <g fill="gray" stroke-miterlimit="1.45" transform="matrix(0.6602,0,0,0.6602,8.9315,-24.2526)" stroke-linecap="butt" stroke="gray">
      <path fill="none" d="M300 647.0831 L300 592.1357" clip-path="url(#clipPath2)"/>
    </g>
    <g fill="gray" stroke-miterlimit="1.45" transform="matrix(0.6602,0,0,0.6602,8.9315,-24.2526)" stroke-linecap="butt" stroke="gray">
      <path d="M300 584.1357 L295 596.1357 L300 593.1357 L305 596.1357 Z" stroke="none" clip-path="url(#clipPath2)"/>
      <path fill="none" d="M153.5293 425 L205.4707 425" clip-path="url(#clipPath2)"/>
      <path d="M213.4707 425 L201.4707 420 L204.4707 425 L201.4707 430 Z" clip-path="url(#clipPath2)" stroke="none"/>
      <path fill="none" d="M300 218.2765 L300 257.8486" clip-path="url(#clipPath2)"/>
      <path d="M300 265.8486 L305 253.8486 L300 256.8486 L295 253.8486 Z" clip-path="url(#clipPath2)" stroke="none"/>
      <path fill="none" d="M589.9503 425 L394.5497 425" clip-path="url(#clipPath2)"/>
      <path d="M386.5497 425 L398.5497 430 L395.5497 425 L398.5497 420 Z" clip-path="url(#clipPath2)" stroke="none"/>
      <path fill="none" d="M550 287.1533 L550 400 L394.5399 400" clip-path="url(#clipPath2)"/>
      <path d="M386.5399 400 L398.5399 405 L395.5399 400 L398.5399 395 Z" clip-path="url(#clipPath2)" stroke="none"/>
    </g>
  </g>
</svg>
